<?xml version="1.0" encoding="UTF-8"?>
<svg id="Capa_1" data-name="Capa 1" xmlns="http://www.w3.org/2000/svg" viewBox="0 0 1463.37 157.41">
  <defs>
    <style>
      .cls-1 {
        fill-rule: evenodd;
      }
    </style>
  </defs>
  <path d="M518.17,2.69h13.29V37.22c0,11.28,4.28,14.16,12.85,14.16s12.85-2.89,12.85-14.16V2.69h13.2V39.05c0,15.12-8.65,23.17-26.05,23.17s-26.14-7.96-26.14-23.17V2.69Z"/>
  <path d="M624.98,33.98v26.84h-12.94v-24.83c0-6.99-2.97-9.79-8.31-9.79-6.91,0-10.75,4.37-10.75,14.77v19.84h-12.94V17.11h12.94v8.57c2.8-5.95,7.78-9.97,15.74-9.97,11.45,0,16.26,6.82,16.26,18.27"/>
  <path d="M634.06,2.69h14.08V11.34h-14.08V2.69Zm.61,14.43h12.94V60.82h-12.94V17.11Z"/>
  <polygon points="702.24 17.11 687.03 60.82 668.85 60.82 653.64 17.11 666.84 17.11 678.38 50.77 689.91 17.11 702.24 17.11"/>
  <path d="M737.72,47.62h12.41c-1.22,7-6.82,14.6-22.55,14.6-17.05,0-23.52-11.02-23.52-23.34s7.34-23.17,23.52-23.17,22.64,10.75,22.64,23.08c0,1.31,0,2.53-.17,3.5h-33.3c.79,8.31,4.9,11.01,11.1,11.01,5.68,0,8.65-2.45,9.88-5.68m-20.89-13.2h21.07c-.44-6.64-3.67-9.97-10.14-9.97s-9.88,2.53-10.93,9.97"/>
  <path d="M786.67,16.41v12.59h-4.28c-8.65,0-11.63,4.72-11.63,14.6v17.22h-12.94V17.11h12.59v9.35c2.1-6.21,6.03-10.05,13.37-10.05h2.89Z"/>
  <path d="M801.96,46.57c.35,4.2,3.5,7.52,10.05,7.52,5.86,0,7.87-2.01,7.87-5.07,0-2.62-1.23-4.54-6.12-5.16l-9.79-1.22c-8.22-1.05-12.67-5.42-12.67-12.76,0-9.7,8.22-14.25,19.84-14.25s19.76,4.63,20.55,14.25h-11.98c-.44-3.58-3.15-6.12-8.57-6.12s-7.87,2.1-7.87,4.9c0,2.18,1.14,3.93,5.51,4.46l9.18,1.05c10.4,1.31,14.34,5.77,14.34,13.55,0,8.57-5.42,14.51-20.46,14.51s-21.42-7.35-21.68-15.65h11.8Z"/>
  <path d="M839.8,2.69h14.07V11.34h-14.07V2.69Zm.61,14.43h12.94V60.82h-12.94V17.11Z"/>
  <path d="M867.24,45.09V26.9h-7.95v-6.2l9.01-3.67,5.33-10.32h6.56v10.4h12.59v9.79h-12.59v23.6h11.37v10.32h-8.22c-12.41,0-16.09-5.33-16.09-15.74"/>
  <path d="M898.36,49.19c0-6.99,3.06-11.54,14.34-13.46l10.32-1.75c4.02-.7,5.42-1.84,5.42-4.37,0-3.06-1.75-5.07-7.6-5.07s-8.74,2.36-8.92,6.82h-12.67c.35-9.35,8.04-15.74,21.33-15.74s19.76,5.68,19.76,14.95v18.88c0,4.11,.26,7.61,.7,11.36h-11.28c-.44-2.89-.7-5.77-.7-9.35-2.01,6.03-7.25,10.49-16.17,10.49s-14.51-4.9-14.51-12.76m30.07-9.18v-1.92c-2.27,1.58-4.46,2.19-7.17,2.8l-3.67,.87c-4.63,1.14-6.47,2.8-6.47,6.12,0,3.5,2.62,5.24,6.12,5.24,6.82,0,11.19-4.98,11.19-13.11"/>
  <path d="M953.6,45.09V26.9h-7.96v-6.2l9.01-3.67,5.33-10.32h6.56v10.4h12.59v9.79h-12.59v23.6h11.36v10.32h-8.22c-12.42,0-16.09-5.33-16.09-15.74"/>
  <path d="M1050.61,48.93h-26.05l-4.2,11.89h-13.37l20.46-58.13h20.28l20.46,58.13h-13.38l-4.2-11.89Zm-3.58-10.23l-9.44-26.84-9.44,26.84h18.88Z"/>
  <path d="M1118.09,17.11V60.82h-12.94v-8.39c-2.71,5.86-7.61,9.79-15.47,9.79-11.45,0-16.52-6.91-16.52-18.36V17.11h12.94v24.83c0,6.91,3.06,9.7,8.57,9.7,6.47,0,10.49-4.81,10.49-14.69V17.11h12.94Z"/>
  <path d="M1132.06,45.09V26.9h-7.95v-6.2l9-3.67,5.33-10.32h6.56v10.4h12.59v9.79h-12.59v23.6h11.36v10.32h-8.22c-12.41,0-16.09-5.33-16.09-15.74"/>
  <path d="M1161.69,38.88c0-12.07,6.82-23.17,24.21-23.17s24.21,11.19,24.21,23.17-6.73,23.34-24.21,23.34-24.21-11.1-24.21-23.34m14.51-37.68l22.12,7.61-1.05,3.41-23.6-2.8,2.53-8.22Zm9.7,50.88c7.95,0,11.27-3.41,11.27-13.11s-3.32-13.11-11.27-13.11-11.19,3.41-11.19,13.11,3.32,13.11,11.19,13.11"/>
  <path d="M1262.82,33.98v26.84h-12.94v-24.83c0-6.99-2.97-9.79-8.3-9.79-6.9,0-10.75,4.37-10.75,14.77v19.84h-12.94V17.11h12.94v8.57c2.8-5.95,7.78-9.97,15.73-9.97,11.45,0,16.26,6.82,16.26,18.27"/>
  <path d="M1269.98,38.88c0-12.07,6.82-23.17,24.21-23.17s24.21,11.19,24.21,23.17-6.73,23.34-24.21,23.34-24.21-11.1-24.21-23.34m24.21,13.2c7.95,0,11.27-3.41,11.27-13.11s-3.32-13.11-11.27-13.11-11.19,3.41-11.19,13.11,3.32,13.11,11.19,13.11"/>
  <path d="M1400.22,33.98v26.84h-12.94v-25c0-6.56-2.62-9.62-7.87-9.62-6.56,0-9.88,4.37-9.88,14.77v19.84h-12.67v-25c0-6.56-2.62-9.62-7.87-9.62-6.56,0-9.88,4.37-9.88,14.77v19.84h-12.94V17.11h12.94v7.95c2.62-5.6,7.34-9.35,14.95-9.35s12.5,3.67,14.42,10.14c2.62-6.03,7.43-10.14,15.65-10.14,11.1,0,16.09,6.82,16.09,18.27"/>
  <path d="M1408.59,49.19c0-6.99,3.06-11.54,14.34-13.46l10.31-1.75c4.02-.7,5.42-1.84,5.42-4.37,0-3.06-1.75-5.07-7.61-5.07s-8.74,2.36-8.92,6.82h-12.67c.35-9.35,8.04-15.74,21.33-15.74s19.76,5.68,19.76,14.95v18.88c0,4.11,.26,7.61,.7,11.36h-11.28c-.44-2.89-.7-5.77-.7-9.35-2.01,6.03-7.25,10.49-16.17,10.49s-14.51-4.9-14.51-12.76m30.07-9.18v-1.92c-2.27,1.58-4.46,2.19-7.17,2.8l-3.67,.87c-4.63,1.14-6.47,2.8-6.47,6.12,0,3.5,2.62,5.24,6.12,5.24,6.82,0,11.19-4.98,11.19-13.11"/>
  <path d="M564.74,91.82v61.19h-12.94v-6.47c-3.06,4.98-8.13,7.87-15.65,7.87-14.25,0-20.11-10.66-20.11-23.34s5.86-23.17,20.11-23.17c7.52,0,12.59,2.97,15.65,7.96v-24.04h12.94Zm-12.94,39.34c0-8.92-3.5-13.11-11.63-13.11s-11.19,4.02-11.19,13.11,2.97,13.11,11.19,13.11,11.63-4.19,11.63-13.11"/>
  <path d="M605.55,139.81h12.41c-1.22,6.99-6.82,14.6-22.55,14.6-17.05,0-23.52-11.01-23.52-23.34s7.34-23.17,23.52-23.17,22.64,10.75,22.64,23.08c0,1.31,0,2.53-.17,3.5h-33.3c.79,8.3,4.9,11.01,11.1,11.01,5.68,0,8.66-2.45,9.88-5.68m-20.89-13.2h21.07c-.43-6.64-3.67-9.97-10.14-9.97s-9.88,2.53-10.93,9.97"/>
  <path d="M697.84,137.19c0,9.79-6.38,15.82-18.79,15.82h-31.82v-58.13h32.43c12.41,0,17.39,6.47,17.39,14.34,0,8.57-5.33,12.41-11.98,13.81,7.25,1.14,12.76,4.9,12.76,14.16m-37.33-32.26v13.9h14.77c5.77,0,7.87-2.8,7.87-6.99,0-4.46-1.92-6.9-7.43-6.9h-15.21Zm23.51,30.42c0-4.63-2.36-7.61-8.74-7.61h-14.77v15.12h15.56c5.95,0,7.96-3.24,7.96-7.52"/>
  <path d="M705.61,141.38c0-6.99,3.06-11.54,14.33-13.46l10.32-1.75c4.02-.7,5.42-1.84,5.42-4.37,0-3.06-1.75-5.07-7.61-5.07s-8.74,2.36-8.92,6.82h-12.68c.35-9.35,8.04-15.74,21.33-15.74s19.75,5.68,19.75,14.95v18.88c0,4.11,.26,7.61,.7,11.36h-11.28c-.44-2.89-.7-5.77-.7-9.35-2.01,6.03-7.26,10.49-16.17,10.49s-14.51-4.9-14.51-12.76m30.07-9.18v-1.92c-2.27,1.58-4.46,2.19-7.17,2.8l-3.67,.87c-4.64,1.14-6.47,2.8-6.47,6.12,0,3.5,2.62,5.24,6.12,5.24,6.82,0,11.19-4.98,11.19-13.11"/>
  <path d="M787.68,108.61v12.59h-4.28c-8.65,0-11.63,4.72-11.63,14.6v17.22h-12.94v-43.71h12.59v9.35c2.1-6.21,6.03-10.05,13.37-10.05h2.89Z"/>
  <path d="M815.39,107.9c15.12,0,22.55,8.39,22.9,19.15h-12.59c-.44-5.42-3.41-9-10.05-9-6.99,0-11.19,3.32-11.19,13.11s4.02,13.11,11.01,13.11,9.97-4.02,10.49-9.27h12.59c-.26,10.23-7.52,19.41-22.9,19.41-17.05,0-24.22-11.01-24.22-23.25s6.99-23.25,23.95-23.25"/>
  <path d="M877.71,139.81h12.41c-1.22,6.99-6.82,14.6-22.55,14.6-17.04,0-23.51-11.01-23.51-23.34s7.34-23.17,23.51-23.17,22.64,10.75,22.64,23.08c0,1.31,0,2.53-.17,3.5h-33.3c.79,8.3,4.9,11.01,11.1,11.01,5.68,0,8.66-2.45,9.88-5.68m-20.89-13.2h21.07c-.44-6.64-3.67-9.97-10.14-9.97s-9.88,2.53-10.93,9.97"/>
  <rect x="897.63" y="91.82" width="12.94" height="61.19"/>
  <path d="M918.34,131.07c0-12.07,6.82-23.17,24.21-23.17s24.21,11.19,24.21,23.17-6.73,23.34-24.21,23.34-24.21-11.1-24.21-23.34m24.21,13.2c7.95,0,11.27-3.41,11.27-13.11s-3.32-13.11-11.27-13.11-11.19,3.41-11.19,13.11,3.32,13.11,11.19,13.11"/>
  <path d="M1019.47,126.18v26.84h-12.94v-24.83c0-6.99-2.97-9.79-8.3-9.79-6.9,0-10.75,4.37-10.75,14.77v19.84h-12.94v-43.71h12.94v8.57c2.8-5.95,7.78-9.97,15.73-9.97,11.45,0,16.26,6.82,16.26,18.27"/>
  <path d="M1027.85,141.38c0-6.99,3.06-11.54,14.34-13.46l10.31-1.75c4.02-.7,5.42-1.84,5.42-4.37,0-3.06-1.75-5.07-7.61-5.07s-8.74,2.36-8.92,6.82h-12.67c.35-9.35,8.04-15.74,21.33-15.74s19.76,5.68,19.76,14.95v18.88c0,4.11,.26,7.61,.7,11.36h-11.28c-.44-2.89-.7-5.77-.7-9.35-2.01,6.03-7.25,10.49-16.17,10.49s-14.51-4.9-14.51-12.76m30.07-9.18v-1.92c-2.27,1.58-4.46,2.19-7.17,2.8l-3.67,.87c-4.63,1.14-6.47,2.8-6.47,6.12,0,3.5,2.62,5.24,6.12,5.24,6.82,0,11.19-4.98,11.19-13.11"/>
  <path d="M11.18,2.7H45.55V91.99c0,29.16,11.08,36.62,33.23,36.62s33.23-7.46,33.23-36.62V2.7h34.14V96.74c0,39.11-22.38,59.91-67.37,59.91S11.18,136.08,11.18,96.74V2.7Z"/>
  <path d="M468.89,112.11c0,25.32-16.5,40.92-48.6,40.92h-82.29V2.7h83.87c32.1,0,44.99,16.73,44.99,37.08,0,22.15-13.79,32.1-30.97,35.72,18.76,2.94,33.01,12.66,33.01,36.62M372.36,28.69v35.95h38.21c14.92,0,20.35-7.24,20.35-18.09,0-11.53-4.97-17.86-19.21-17.86h-39.34Zm60.81,78.67c0-11.98-6.1-19.67-22.61-19.67h-38.21v39.11h40.24c15.37,0,20.57-8.36,20.57-19.44"/>
  <path class="cls-1" d="M264.9,2.66h-48.43l-59.88,150.36h33.8c.48-1.3,1.16-3.12,1.66-4.31,2.75-6.62,6.92-12.14,12.01-16.93,8.34-7.85,18.52-11.18,29.05-12.04,7.14-.58,15.5-.74,22.67-.75h22.08s13.1,34.03,13.1,34.03h33.82L264.9,2.66Zm-11.82,89.98c-.9,0-1.76,.01-2.55,.02-17.82,.16-32.46,4.36-46.6,24.99L240.69,26.4l26.68,66.24c-.41,0-14.29,0-14.29,0"/>
</svg>